<?xml version="1.0" standalone="no"?>
<!DOCTYPE svg PUBLIC "-//W3C//DTD SVG 20010904//EN"
 "http://www.w3.org/TR/2001/REC-SVG-20010904/DTD/svg10.dtd">
<svg version="1.0" xmlns="http://www.w3.org/2000/svg"
 width="160.000000pt" height="160.000000pt" viewBox="0 0 160.000000 160.000000"
 preserveAspectRatio="xMidYMid meet">
<metadata>
Created by potrace 1.14, written by Peter Selinger 2001-2017
</metadata>
<g transform="translate(0.000000,160.000000) scale(0.100000,-0.100000)"
fill="#000000" stroke="none">
<path d="M1225 1496 c-84 -85 -109 -107 -165 -146 -12 -8 -47 -34 -78 -56 -57
-41 -92 -52 -92 -28 0 7 -5 14 -11 16 -7 2 -7 12 -1 28 5 14 6 34 2 45 -7 18
-10 16 -30 -17 -27 -46 -31 -47 -20 -5 9 32 7 83 -3 93 -11 12 -30 -9 -53 -60
l-23 -51 1 55 c3 137 -14 146 -47 24 -12 -43 -38 -121 -59 -172 -20 -51 -39
-100 -40 -110 -11 -58 -19 -112 -22 -147 -3 -49 -17 -86 -39 -109 -16 -16 -18
-16 -33 5 -8 12 -17 38 -19 58 -5 62 -24 119 -45 138 -13 11 -36 18 -63 18
-37 0 -48 -6 -85 -43 -39 -41 -42 -43 -55 -25 -20 26 -18 33 8 33 27 0 58 24
75 57 20 37 15 45 -20 38 -45 -10 -66 -25 -79 -58 l-12 -29 -14 32 c-18 45
-16 60 7 60 32 0 82 39 113 86 34 52 28 67 -20 59 -46 -7 -86 -36 -107 -77
l-17 -33 5 45 c10 87 15 96 57 105 45 10 93 58 109 107 7 24 20 50 27 59 7 8
13 18 13 22 0 8 -70 0 -102 -12 -60 -23 -115 -109 -99 -155 5 -11 1 -32 -8
-50 -8 -17 -16 -50 -16 -74 -2 -48 -15 -70 -16 -26 0 16 -2 37 -4 46 -4 21
-68 127 -77 128 -7 0 -20 -50 -24 -90 -3 -43 25 -88 77 -120 32 -19 49 -37 49
-49 0 -11 5 -23 10 -26 6 -3 10 -13 10 -21 0 -11 -8 -9 -32 9 -18 13 -45 27
-60 31 -14 3 -33 9 -42 12 -36 14 6 -76 45 -97 21 -11 58 -9 89 5 27 11 73
-79 76 -149 2 -42 7 -60 16 -60 18 0 20 61 3 101 -21 50 6 51 44 1 27 -36 38
-71 31 -102 -12 -54 -7 -162 10 -210 30 -88 81 -176 132 -227 58 -59 143 -88
257 -88 l76 0 38 -64 c43 -72 82 -116 104 -116 8 0 26 -9 40 -20 14 -11 34
-20 44 -20 10 0 21 -5 24 -10 3 -6 21 -10 40 -10 19 0 36 -4 40 -9 3 -5 18 -7
33 -4 15 3 33 6 41 7 8 2 20 11 27 21 11 15 11 22 -3 46 -13 22 -14 32 -5 41
9 9 7 20 -9 48 -16 28 -52 56 -147 115 -70 43 -139 86 -154 96 -15 11 -31 19
-35 19 -11 0 -102 168 -95 174 3 4 17 6 31 6 36 0 98 23 124 46 12 10 36 25
53 34 56 27 144 102 144 121 0 6 29 40 65 76 36 37 67 74 70 83 3 10 23 36 45
59 22 23 40 48 40 56 0 27 1 30 25 61 32 42 43 84 21 84 -13 0 -12 6 9 38 32
49 41 94 22 111 -13 10 -22 6 -53 -21 l-38 -33 22 31 c39 57 58 125 41 155 -9
17 -12 18 -38 5 -15 -8 -49 -39 -75 -68 l-47 -53 26 53 c29 60 37 106 21 125
-9 11 -29 -4 -101 -77z"/>
</g>
</svg>
